<svg id="visual" viewBox="0 0 960 540" width="1300" height="990" xmlns="http://www.w3.org/2000/svg"
    xmlns:xlink="http://www.w3.org/1999/xlink" version="1.1">
    <g transform="translate(870.1718473663472 -7.328421552190804)">
        <path
            d="M308.7 -387C403.8 -355.7 487.2 -270.6 540.8 -162.3C594.4 -54.1 618.2 77.3 566.3 167.6C514.4 258 386.8 307.4 279.8 351.6C172.8 395.9 86.4 434.9 18.4 409.6C-49.6 384.3 -99.2 294.5 -167.8 237.8C-236.5 181.1 -324.1 157.5 -371.5 99.9C-418.8 42.3 -425.8 -49.1 -403 -134.5C-380.2 -219.9 -327.6 -299.3 -255.5 -338C-183.4 -376.7 -91.7 -374.9 7.5 -385.3C106.8 -395.6 213.6 -418.3 308.7 -387"
            fill="#1a1a1a"></path>
    </g>
</svg>