<?xml version="1.0" encoding="iso-8859-1"?>
<!-- Generator: Adobe Illustrator 22.1.0, SVG Export Plug-In . SVG Version: 6.00 Build 0)  -->
<svg version="1.1" id="Layer_1" xmlns="http://www.w3.org/2000/svg" xmlns:xlink="http://www.w3.org/1999/xlink" x="0px" y="0px"
	 viewBox="0 0 48 48" style="enable-background:new 0 0 48 48;" xml:space="preserve">
<g>
	<polygon style="fill:#29B6F6;" points="1,5 7,9 7,29 1,25 	"/>
</g>
<g>
	<polygon style="fill:#0288D1;" points="47,20 41,24 41,37 47,33 	"/>
</g>
<g>
	<polygon style="fill:#0288D1;" points="47,6 41,10 41,17 47,13 	"/>
</g>
<g>
	<polygon style="fill:#0288D1;" points="35,5 29,9 29,29 35,25 	"/>
</g>
<g>
	<polygon style="fill:#29B6F6;" points="1,12 18,23 18,16 1,5 	"/>
</g>
<g>
	<polygon style="fill:#0288D1;" points="35,12 18,23 18,16 35,5 	"/>
</g>
<g>
	<polygon style="fill:#0288D1;" points="35,26 18,37 18,30 35,19 	"/>
</g>
<g>
	<polygon style="fill:#0288D1;" points="47,34 30,45 30,38 47,27 	"/>
</g>
<g>
	<polygon style="fill:#29B6F6;" points="30,37.765 18,30 18,37 30,44.765 	"/>
</g>
</svg>